<?xml version="1.0" encoding="UTF-8" standalone="no"?>
<!-- Created with Inkscape (http://www.inkscape.org/) -->

<svg
   xmlns:dc="http://purl.org/dc/elements/1.1/"
   xmlns:cc="http://creativecommons.org/ns#"
   xmlns:rdf="http://www.w3.org/1999/02/22-rdf-syntax-ns#"
   xmlns:svg="http://www.w3.org/2000/svg"
   xmlns="http://www.w3.org/2000/svg"
   xmlns:sodipodi="http://sodipodi.sourceforge.net/DTD/sodipodi-0.dtd"
   xmlns:inkscape="http://www.inkscape.org/namespaces/inkscape"
   width="512"
   height="512"
   viewBox="0 0 512.00001 512.00001"
   id="svg2"
   version="1.1"
   inkscape:version="0.91 r"
   sodipodi:docname="player.svg"
   inkscape:export-filename="/home/max/projects/NotZombies/gfx/characters/player.png"
   inkscape:export-xdpi="22.389999"
   inkscape:export-ydpi="22.389999">
  <defs
     id="defs4" />
  <sodipodi:namedview
     id="base"
     pagecolor="#ffffff"
     bordercolor="#666666"
     borderopacity="1.0"
     inkscape:pageopacity="0"
     inkscape:pageshadow="2"
     inkscape:zoom="1.4"
     inkscape:cx="232.48299"
     inkscape:cy="249.23433"
     inkscape:document-units="px"
     inkscape:current-layer="layer1"
     showgrid="false"
     units="px"
     inkscape:window-width="1918"
     inkscape:window-height="1028"
     inkscape:window-x="1080"
     inkscape:window-y="582"
     inkscape:window-maximized="0" />
  <metadata
     id="metadata7">
    <rdf:RDF>
      <cc:Work
         rdf:about="">
        <dc:format>image/svg+xml</dc:format>
        <dc:type
           rdf:resource="http://purl.org/dc/dcmitype/StillImage" />
        <dc:title></dc:title>
      </cc:Work>
    </rdf:RDF>
  </metadata>
  <g
     inkscape:label="Layer 1"
     inkscape:groupmode="layer"
     id="layer1"
     transform="translate(0,-540.36216)">
    <circle
       style="fill:none;stroke:#000000;stroke-opacity:1"
       id="path4158"
       cx="256.78571"
       cy="797.005"
       r="256.78571" />
    <circle
       style="fill:none;stroke:#000000;stroke-width:0.92482585;stroke-opacity:1"
       id="path4160"
       cx="260.35715"
       cy="798.43359"
       r="179.68045" />
    <circle
       style="fill:none;stroke:#000000;stroke-width:0.76530987;stroke-opacity:1"
       id="path4160-1"
       cx="259.64288"
       cy="799.86218"
       r="148.68878" />
    <circle
       style="fill:none;stroke:#000000;stroke-width:0.58012474;stroke-opacity:1"
       id="path4160-1-0"
       cx="261.07144"
       cy="799.86212"
       r="112.70995" />
    <circle
       style="fill:none;stroke:#000000;stroke-width:0.40594065;stroke-opacity:1"
       id="path4160-1-0-9"
       cx="262.5"
       cy="799.86212"
       r="78.868477" />
    <path
       style="fill:none;fill-rule:evenodd;stroke:#000000;stroke-width:1px;stroke-linecap:butt;stroke-linejoin:miter;stroke-opacity:1"
       d="m 235.71429,725.2193 0,52.85715"
       id="path4207"
       inkscape:connector-curvature="0" />
    <path
       style="fill:none;fill-rule:evenodd;stroke:#000000;stroke-width:1px;stroke-linecap:butt;stroke-linejoin:miter;stroke-opacity:1"
       d="m 186.42857,778.07645 0.71429,0.71428"
       id="path4209"
       inkscape:connector-curvature="0" />
    <path
       style="fill:none;fill-rule:evenodd;stroke:#000000;stroke-width:1px;stroke-linecap:butt;stroke-linejoin:miter;stroke-opacity:1"
       d="m 235.71429,778.07645 -49.28572,0"
       id="path4211"
       inkscape:connector-curvature="0" />
    <path
       style="fill:none;fill-rule:evenodd;stroke:#000000;stroke-width:1px;stroke-linecap:butt;stroke-linejoin:miter;stroke-opacity:1"
       d="M 184.28571,811.64787 235,810.93359 l 0.71429,62.14286"
       id="path4213"
       inkscape:connector-curvature="0" />
    <path
       style="fill:none;fill-rule:evenodd;stroke:#000000;stroke-width:1px;stroke-linecap:butt;stroke-linejoin:miter;stroke-opacity:1"
       d="m 282.14286,723.79073 0.71428,52.85714 53.57143,-0.71428"
       id="path4215"
       inkscape:connector-curvature="0" />
    <path
       style="fill:none;fill-rule:evenodd;stroke:#000000;stroke-width:1px;stroke-linecap:butt;stroke-linejoin:miter;stroke-opacity:1"
       d="m 283.57143,875.93359 -0.71429,-65.71429 57.14286,0"
       id="path4217"
       inkscape:connector-curvature="0" />
    <circle
       style="fill:#000000;fill-opacity:1;stroke:#000000;stroke-opacity:1"
       id="path4221"
       cx="304.28571"
       cy="758.79071"
       r="5.7142859" />
    <circle
       style="fill:#000000;fill-opacity:1;stroke:#000000;stroke-opacity:1"
       id="path4221-4"
       cx="306.42856"
       cy="832.36218"
       r="5.7142859" />
    <circle
       style="fill:#000000;fill-opacity:1;stroke:#000000;stroke-opacity:1"
       id="path4221-4-2"
       cx="215"
       cy="833.07648"
       r="5.7142859" />
    <circle
       style="fill:#000000;fill-opacity:1;stroke:#000000;stroke-opacity:1"
       id="path4221-4-2-2"
       cx="215"
       cy="759.50507"
       r="5.7142859" />
    <path
       style="fill:none;fill-rule:evenodd;stroke:#000000;stroke-width:1px;stroke-linecap:butt;stroke-linejoin:miter;stroke-opacity:1"
       d="m 347.14286,640.2193 45.71428,-9.28571 -2.14285,42.85714 45.71428,2.14286 -14.28571,42.14286 37.14285,11.42857 -22.14285,32.85714 30.71428,30 -29.28571,24.28571 17.85714,35 L 425,869.50502 l 13.57143,43.57143 -42.85714,2.85714 -4.28572,46.42857 -47.14286,-6.42857 -11.42857,42.85714 -42.14285,-22.85714 -29.28572,31.42861 L 230,975.2193 192.14286,995.93359 176.42857,957.36216 130.71429,963.79073 130,922.36216 l -44.285714,-9.28571 8.571428,-42.14286 -33.571428,-20 L 81.428572,819.50502 51.428571,797.36216 81.428572,771.64787 59.285714,732.36216 100,714.50502 l -5,-40.71429 37.14286,-2.85714 0.71428,-36.42857 42.14286,4.28571 10,-37.85714 37.85714,20.71428 35.71429,-35 27.85714,32.85715 45.71429,-22.85715 z"
       id="path4268"
       inkscape:connector-curvature="0" />
    <path
       style="fill:#e6e6e6;fill-opacity:1;stroke:#000000;stroke-width:0.71428573;stroke-opacity:1"
       d="M 232.69728,511.51085 C 158.62433,504.6115 91.151049,465.29441 47.179492,403.40852 10.818898,352.23436 -5.4333772,285.61589 3.1009129,222.72935 9.3608955,176.60149 27.907779,133.12757 56.748241,96.979953 64.456635,87.318524 82.143921,69.127133 91.268706,61.47562 131.99716,27.323117 178.89677,7.4196091 231.42696,1.9945106 243.53819,0.74371431 267.15885,0.57507749 279.12585,1.6539703 357.90069,8.7559698 428.48431,51.252679 471.51897,117.48927 c 34.03036,52.37765 47.61314,115.24749 38.28735,177.21846 -15.46569,102.77134 -91.45266,185.84751 -192.57105,210.53694 -12.49104,3.04986 -25.16525,5.15784 -38.10942,6.33838 -9.62379,0.87772 -36.68182,0.83563 -46.42857,-0.0722 z m 43.54638,-59.16419 14.55337,-15.70472 7.55727,4.04621 c 4.15649,2.22541 13.63582,7.36577 21.06516,11.42301 7.42935,4.05724 13.66086,7.22384 13.84781,7.03689 0.18695,-0.18695 2.80144,-9.54088 5.80998,-20.78653 3.39013,-12.67199 5.87242,-20.6718 6.52822,-21.0388 0.93535,-0.52345 10.87435,0.6394 38.87752,4.5486 3.92857,0.54843 7.27363,0.88074 7.43346,0.73848 0.15983,-0.14227 1.24017,-10.46718 2.40076,-22.94425 1.16058,-12.47708 2.3928,-22.86338 2.73826,-23.08066 0.34546,-0.21729 9.95262,-0.99256 21.34924,-1.72284 16.53025,-1.05923 20.72114,-1.5277 20.72114,-2.31626 0,-0.54367 -2.90591,-10.30474 -6.45759,-21.69128 -3.55167,-11.38653 -6.29352,-20.96824 -6.093,-21.29269 0.20052,-0.32445 7.12429,-4.41177 15.38615,-9.08295 8.26188,-4.67117 15.02158,-8.80682 15.02158,-9.19033 0,-0.38352 -3.90227,-8.39713 -8.67171,-17.80802 l -8.67171,-17.11072 1.70742,-1.38117 c 0.93909,-0.75964 7.59724,-6.24736 14.79589,-12.19492 l 13.08846,-10.81376 -15.53519,-15.03425 -15.53519,-15.03425 11.24275,-16.57765 c 7.49118,-11.04588 10.92946,-16.69258 10.30388,-16.92208 -0.51639,-0.18944 -8.79966,-2.77129 -18.40728,-5.73745 -9.60763,-2.96617 -17.56587,-5.49048 -17.68497,-5.6096 -0.11912,-0.1191 2.83988,-9.3262 6.57554,-20.4602 3.73566,-11.134 6.79211,-20.61413 6.79211,-21.06695 0,-0.58366 -6.18538,-1.07582 -21.25,-1.69085 -11.6875,-0.47715 -21.89285,-0.99767 -22.67857,-1.15672 -1.41715,-0.28688 -1.42055,-0.45799 -0.42519,-21.40098 0.55186,-11.611474 0.87328,-21.24131 0.71428,-21.399624 -0.159,-0.158315 -10.38986,1.782257 -22.73524,4.312371 -12.34538,2.530122 -22.66048,4.350986 -22.92243,4.046372 -0.26195,-0.304622 -2.82637,-7.464565 -5.6987,-15.910993 -2.87234,-8.446429 -6.16364,-17.996879 -7.314,-21.223223 l -2.09159,-5.86608 -22.89986,11.454271 C 291.01811,76.037388 286.62301,77.981453 285.92331,77.211003 285.23347,76.45141 266.56109,54.389819 260.07994,46.676826 l -1.5459,-1.83973 -17.83159,17.739075 -17.83159,17.739075 -19.09681,-10.455248 c -10.50324,-5.750387 -19.18619,-10.357971 -19.29544,-10.239076 -0.10925,0.118896 -2.37967,8.573316 -5.04538,18.787602 -2.6657,10.214286 -4.93042,18.685407 -5.03272,18.824722 -0.18228,0.248221 -36.6942,-3.184829 -40.34519,-3.793486 l -1.85624,-0.30945 -0.50615,17.99625 c -0.27837,9.89794 -0.72878,18.19942 -1.0009,18.44774 -0.27211,0.24832 -8.53047,1.01519 -18.3519,1.70414 -9.82142,0.68896 -17.943817,1.32246 -18.049752,1.40779 -0.187529,0.15104 3.707678,33.16396 4.518007,38.29129 l 0.406007,2.56899 -20.381836,8.85958 c -11.210013,4.87276 -20.390648,9.04836 -20.401416,9.27909 -0.01076,0.23073 4.816626,9.02569 10.727539,19.54437 5.910913,10.51867 10.646156,19.42774 10.522756,19.79794 -0.1234,0.37019 -6.632886,6.20395 -14.46552,12.96391 -7.832637,6.75995 -14.236489,12.60852 -14.230784,12.99682 0.0057,0.38831 6.417649,5.43986 14.248764,11.22568 7.831118,5.7858 14.331068,10.79767 14.444333,11.13748 0.113271,0.33982 -4.303965,7.43139 -9.816073,15.75907 -5.512111,8.32768 -10.008192,15.36938 -9.991291,15.64822 0.0169,0.27885 7.103214,4.66102 15.747364,9.73815 8.64415,5.07714 16.170314,9.57714 16.724821,10 0.852622,0.65022 0.341922,4.00133 -3.309828,21.71829 -2.374908,11.52219 -4.20955,21.02796 -4.076979,21.12392 0.132571,0.096 10.076086,2.21564 22.096698,4.71037 l 21.85567,4.53587 0.46375,13.26877 c 0.25505,7.29782 0.46465,16.71609 0.46575,20.92948 l 0.002,7.66072 1.96428,-0.33764 c 6.64739,-1.14263 43.86347,-6.1768 44.06538,-5.96066 0.13493,0.14442 3.70489,8.78044 7.93325,19.19116 4.22836,10.41071 7.7645,19.02837 7.8581,19.15035 0.0936,0.12199 8.6418,-4.44409 18.99601,-10.14683 l 18.82571,-10.36862 15.71429,15.94921 c 8.64286,8.77207 15.88949,15.98993 16.10364,16.03969 0.21414,0.0498 6.93838,-6.97665 14.94274,-15.61424 z"
       id="path4270"
       inkscape:connector-curvature="0"
       transform="translate(0,540.36216)" />
    <path
       style="fill:#e6e6e6;fill-opacity:1;stroke:#000000;stroke-width:0.71428573;stroke-opacity:1"
       d="m 238.48299,435.58095 c -3.53571,-0.53505 -7.875,-1.18793 -9.64286,-1.45085 -10.03102,-1.49183 -28.30403,-7.00345 -40.13587,-12.10604 -7.8726,-3.39512 -19.7119,-9.97014 -28.03905,-15.57164 C 141.56481,393.60399 123.73632,375.5524 110.85724,356.02119 78.134782,306.39735 72.473033,243.63172 95.715076,188.15654 c 8.817004,-21.04483 20.899874,-38.71689 38.428784,-56.20484 19.5011,-19.45552 39.26895,-32.341121 63.36004,-41.301019 22.96365,-8.540583 42.17237,-11.622494 68.3602,-10.967939 22.94816,0.573581 40.47231,4.121191 60.94566,12.337918 57.60415,23.1187 99.55442,75.11498 109.84493,136.14992 2.03141,12.04872 2.93059,28.30854 2.14618,38.80937 -0.35216,4.71429 -0.64626,9.41261 -0.65355,10.44071 -0.0251,3.53306 -2.90766,18.85449 -5.09098,27.05929 -2.0663,7.76507 -6.32063,20.08518 -8.01624,23.21429 -0.42576,0.78571 -0.84049,1.82356 -0.92162,2.30633 -0.29575,1.75991 -9.63149,19.00713 -13.5612,25.05348 -11.51742,17.72103 -26.87633,34.01912 -44.17677,46.8781 -9.15505,6.80472 -20.08259,13.3381 -21.4386,12.81775 -0.64282,-0.24668 -1.27577,0.0666 -1.54335,0.76395 -0.98435,2.56517 -20.92272,10.99493 -35.36441,14.95175 -16.63222,4.557 -24.5772,5.59266 -44.9083,5.85401 -12.83424,0.16499 -20.11313,-0.0532 -24.64286,-0.73866 z m 46.78572,-28.96196 c 31.45659,-5.51155 59.29882,-20.35884 81.8336,-43.63901 34.22688,-35.35901 48.5746,-84.85467 38.80227,-133.85717 -3.30774,-16.58639 -12.04899,-37.58167 -21.64634,-51.99151 -12.21673,-18.34268 -29.45534,-34.78109 -48.3572,-46.11254 -33.33083,-19.98144 -75.0998,-25.91294 -113.65464,-16.1398 -39.20184,9.93716 -73.56472,36.54869 -93.31428,72.26508 -31.524087,57.01022 -22.42143,127.96291 22.46833,175.13436 24.42165,25.66297 56.01252,41.41842 91.7254,45.74657 9.26918,1.12336 32.04336,0.36356 42.14286,-1.40598 z"
       id="path4272"
       inkscape:connector-curvature="0"
       transform="translate(0,540.36216)" />
    <path
       style="fill:#e6e6e6;fill-opacity:1;stroke:#000000;stroke-width:0.71428573;stroke-opacity:1"
       d="m 248.60799,370.86849 c -37.62579,-4.37288 -70.63145,-27.42379 -87.53017,-61.13042 -9.41858,-18.78656 -13.44003,-39.44522 -11.59984,-59.58981 2.37227,-25.96933 12.86508,-49.31362 30.43358,-67.70827 38.11185,-39.90404 97.75599,-46.41713 144.0039,-15.7251 9.33133,6.19266 23.84559,20.78991 30.14771,30.3201 8.34947,12.62625 13.63421,25.39583 17.04174,41.17822 2.30528,10.67716 2.29574,31.86824 -0.0192,42.69531 -3.39968,15.90026 -9.83809,30.88693 -18.56186,43.20634 -5.10175,7.20454 -16.77729,19.3401 -23.41123,24.33366 -23.25009,17.50105 -52.57026,25.6665 -80.50461,22.41997 l -1e-5,0 z m 31.1433,-33.84654 c 31.26697,-7.10094 55.44739,-32.56666 60.96518,-64.20578 1.53045,-8.77562 1.00875,-24.23258 -1.08523,-32.15315 -7.7269,-29.22731 -28.75255,-50.37227 -57.81286,-58.14089 -6.03274,-1.61272 -8.39833,-1.85425 -18.69253,-1.90857 -13.07816,-0.069 -18.69354,0.85602 -28.87918,4.75727 -26.34264,10.08961 -45.53142,33.6081 -50.02427,61.31164 -6.97659,43.0186 21.32198,82.79392 64.78549,91.05983 6.5218,1.24032 23.90345,0.83305 30.7434,-0.72035 z"
       id="path4274"
       inkscape:connector-curvature="0"
       transform="translate(0,540.36216)" />
    <path
       style="fill:#e6e6e6;fill-opacity:1;stroke:#000000;stroke-width:0.71428573;stroke-opacity:1"
       d="m 253.21196,337.25454 c -2.89906,-0.33633 -7.75064,-1.28058 -10.78128,-2.09834 l -5.51025,-1.48682 -0.46872,-13.99529 c -0.2578,-7.69741 -0.46872,-22.06161 -0.46872,-31.92044 l 0,-17.92515 -25.63225,0.26128 -25.63226,0.26129 -0.29925,-5.61413 c -0.34837,-6.53546 0.31362,-16.02082 1.52553,-21.85851 l 0.84998,-4.09436 24.7727,-0.18777 24.77269,-0.18778 0.18719,-26.53121 0.18719,-26.53122 5.88424,-1.64125 c 7.18833,-2.00498 25.19594,-2.74888 33.33014,-1.37687 2.77976,0.46887 5.12078,0.9038 5.20228,0.96652 0.0815,0.0627 0.32257,12.16761 0.53572,26.89975 l 0.38753,26.78571 27.14286,-0.26794 c 15.03322,-0.14841 27.32648,-0.55562 27.55443,-0.91273 1.48375,-2.32445 4.80916,22.03167 3.93915,28.85127 l -0.52295,4.09917 -28.94661,0.18655 -28.9466,0.18654 0.10049,32.99955 0.1005,32.99955 -2.8368,0.76386 c -3.07373,0.82768 -15.54058,2.17482 -19.01304,2.05451 -1.17857,-0.0409 -4.51482,-0.34941 -7.41389,-0.68574 z"
       id="path4276"
       inkscape:connector-curvature="0"
       transform="translate(0,540.36216)" />
    <path
       style="fill:#999999;fill-opacity:1;stroke:#000000;stroke-width:0.71428573;stroke-opacity:1"
       d="m 241.13809,64.557833 c 9.2965,-9.126192 17.03976,-16.653942 17.20725,-16.728335 0.33755,-0.14993 27.01192,31.104104 26.73804,31.328635 -0.0945,0.07747 -2.42182,-0.167664 -5.17182,-0.544739 -12.27743,-1.683458 -39.87973,-0.621781 -53.22462,2.047198 -2.16758,0.433516 -0.49353,-1.431862 14.45115,-16.102759 z"
       id="path4278"
       inkscape:connector-curvature="0"
       transform="translate(0,540.36216)" />
    <path
       style="fill:#999999;fill-opacity:1;stroke:#000000;stroke-width:0.71428573;stroke-opacity:1"
       d="m 339.55442,95.963755 c -12.45727,-6.349386 -31.77925,-12.821907 -45,-15.074203 -2.94643,-0.501956 -5.58913,-1.111807 -5.87267,-1.355226 -0.28355,-0.243419 9.24577,-5.320105 21.17625,-11.281525 l 21.69178,-10.838945 2.20628,6.21162 c 6.57412,18.508932 12.09462,35.135849 11.65546,35.104485 -0.27498,-0.01964 -2.91067,-1.264432 -5.8571,-2.766206 z"
       id="path4280"
       inkscape:connector-curvature="0"
       transform="translate(0,540.36216)" />
    <path
       style="fill:#999999;fill-opacity:1;stroke:#000000;stroke-width:0.71428573;stroke-opacity:1"
       d="m 384.91156,127.44171 c -9.12844,-8.71257 -25.96341,-21.35071 -33.92857,-25.47043 -1.375,-0.71117 -2.17857,-1.40044 -1.78571,-1.5317 2.17028,-0.725153 42.16266,-8.67792 42.40754,-8.433041 0.16091,0.160913 -0.15424,9.273401 -0.70035,20.249971 l -0.99291,19.95741 -5,-4.77221 z"
       id="path4282"
       inkscape:connector-curvature="0"
       transform="translate(0,540.36216)" />
    <path
       style="fill:#999999;fill-opacity:1;stroke:#000000;stroke-width:0.71428573;stroke-opacity:1"
       d="m 418.9381,171.95971 c -4.92967,-9.50802 -14.54493,-23.40609 -22.44715,-32.44551 -2.21585,-2.53474 -3.90315,-4.73429 -3.74955,-4.88789 0.34015,-0.34015 36.95635,1.21066 40.17974,1.70174 l 2.29528,0.34968 -6.74745,19.72233 c -3.7111,10.84727 -6.84009,19.81496 -6.95331,19.92818 -0.11322,0.11322 -1.27312,-1.85262 -2.57756,-4.36853 z"
       id="path4284"
       inkscape:connector-curvature="0"
       transform="translate(0,540.36216)" />
    <path
       style="fill:#999999;fill-opacity:1;stroke:#000000;stroke-width:0.71428573;stroke-opacity:1"
       d="m 435.30269,213.89579 c -2.03795,-8.52947 -6.47902,-21.40359 -10.08571,-29.23727 -1.49221,-3.24107 -2.6133,-5.89285 -2.4913,-5.89285 0.49459,0 34.87618,10.67195 35.00024,10.86397 0.0737,0.1141 -4.56956,7.17673 -10.3184,15.69473 l -10.45242,15.48727 -1.65241,-6.91585 z"
       id="path4286"
       inkscape:connector-curvature="0"
       transform="translate(0,540.36216)" />
    <path
       style="fill:#999999;fill-opacity:1;stroke:#000000;stroke-width:0.71428573;stroke-opacity:1"
       d="m 440.54735,257.73287 c -0.0527,-10.57474 -0.46358,-18.31783 -1.25,-23.55582 -0.64432,-4.2916 -1.1715,-8.25768 -1.1715,-8.81351 0,-0.55583 6.40537,5.15532 14.23415,12.69144 l 14.23414,13.70203 -2.26986,1.96671 c -1.24842,1.08169 -7.09129,5.97067 -12.98414,10.86439 l -10.71429,8.89767 -0.0785,-15.75291 z"
       id="path4288"
       inkscape:connector-curvature="0"
       transform="translate(0,540.36216)" />
    <path
       style="fill:#999999;fill-opacity:1;stroke:#000000;stroke-width:0.71428573;stroke-opacity:1"
       d="m 428.12585,325.33096 c 0,-0.31767 0.95744,-3.20103 2.12765,-6.40747 2.88084,-7.89369 6.29023,-20.87189 7.86236,-29.92889 0.71293,-4.10716 1.41899,-7.59031 1.56902,-7.74035 0.15003,-0.15003 3.7315,6.43861 7.95882,14.64142 l 7.68602,14.9142 -4.85193,2.81031 c -9.68516,5.60976 -21.6365,12.28834 -21.99002,12.28834 -0.19906,0 -0.36192,-0.2599 -0.36192,-0.57756 z"
       id="path4290"
       inkscape:connector-curvature="0"
       transform="translate(0,540.36216)" />
    <path
       style="fill:#999999;fill-opacity:1;stroke:#000000;stroke-width:0.71428573;stroke-opacity:1"
       d="m 398.84014,374.177 c 0,-0.26815 1.72956,-2.64004 3.84347,-5.27087 5.98535,-7.44894 12.38957,-17.44743 17.6361,-27.53413 l 4.80226,-9.23255 1.93502,6.34882 c 1.06426,3.49186 3.83584,12.42276 6.15906,19.84646 2.32323,7.4237 4.13727,13.56192 4.03121,13.64049 -0.10606,0.0786 -6.62141,0.52185 -14.47855,0.98507 -7.85715,0.46321 -16.45536,1.03617 -19.10715,1.27323 -2.65178,0.23706 -4.82142,0.21163 -4.82142,-0.0565 z"
       id="path4292"
       inkscape:connector-curvature="0"
       transform="translate(0,540.36216)" />
    <path
       style="fill:#999999;fill-opacity:1;stroke:#000000;stroke-width:0.71428573;stroke-opacity:1"
       d="m 368.84014,418.05796 c -10.41072,-1.48169 -19.07585,-2.73217 -19.25586,-2.77885 -0.18,-0.0467 2.39143,-1.75381 5.71429,-3.79363 11.26667,-6.91632 21.12197,-14.69243 32.38783,-25.55492 l 7.06055,-6.80775 -0.42658,3.21429 c -0.23462,1.76785 -1.14461,11.16964 -2.0222,20.89285 -1.52498,16.89607 -1.66054,17.67511 -3.06254,17.60028 -0.80681,-0.0431 -9.98478,-1.29058 -20.39549,-2.77227 z"
       id="path4294"
       inkscape:connector-curvature="0"
       transform="translate(0,540.36216)" />
    <path
       style="fill:#999999;fill-opacity:1;stroke:#000000;stroke-width:0.71428573;stroke-opacity:1"
       d="m 321.69728,451.42086 c -5.69643,-3.12203 -14.51219,-7.94081 -19.59057,-10.7084 l -9.23343,-5.03198 7.29122,-1.6352 c 13.2382,-2.96893 27.82155,-8.0182 38.00423,-13.1584 2.33356,-1.17798 4.24283,-2.00264 4.24283,-1.83258 0,0.51961 -10.0335,37.84433 -10.20078,37.94701 -0.086,0.0528 -4.81707,-2.45842 -10.5135,-5.58045 z"
       id="path4296"
       inkscape:connector-curvature="0"
       transform="translate(0,540.36216)" />
    <path
       style="fill:#999999;fill-opacity:1;stroke:#000000;stroke-width:0.71428573;stroke-opacity:1"
       d="m 247.05442,451.06037 c -14.11985,-14.48877 -14.25254,-14.65369 -11.42857,-14.20417 1.57143,0.25014 7.75893,0.82321 13.75,1.27348 10.30408,0.77443 24.03356,0.28907 35.89286,-1.26888 l 3.21428,-0.42226 -2.18908,2.41357 c -3.38047,3.72712 -22.54246,24.41172 -23.81916,25.71183 -1.04124,1.06032 -2.31032,-0.051 -15.42033,-13.50357 z"
       id="path4298"
       inkscape:connector-curvature="0"
       transform="translate(0,540.36216)" />
    <path
       style="fill:#999999;fill-opacity:1;stroke:#000000;stroke-width:0.71428573;stroke-opacity:1"
       d="m 185.59342,437.25735 c -3.82454,-9.40543 -6.79874,-17.25575 -6.60935,-17.44515 0.1894,-0.18939 3.047,0.89808 6.35021,2.4166 9.83695,4.52216 19.65308,7.94944 30.84191,10.7684 l 10.55034,2.65808 -12.32407,6.73377 c -6.77824,3.70357 -14.46861,7.91171 -17.0897,9.35142 l -4.76563,2.61766 -6.95371,-17.10078 z"
       id="path4300"
       inkscape:connector-curvature="0"
       transform="translate(0,540.36216)" />
    <path
       style="fill:#999999;fill-opacity:1;stroke:#000000;stroke-width:0.71428573;stroke-opacity:1"
       d="m 131.36375,411.44424 c -0.26616,-5.99107 -0.38036,-14.47183 -0.25377,-18.84614 l 0.23015,-7.95328 7.14286,6.4414 c 8.84346,7.97499 19.35566,15.86746 28.05516,21.06355 3.64462,2.17688 6.49926,4.08529 6.34364,4.24091 -0.23708,0.23708 -39.18701,5.94525 -40.57359,5.94613 -0.25329,1.6e-4 -0.67828,-4.9015 -0.94445,-10.89257 z"
       id="path4302"
       inkscape:connector-curvature="0"
       transform="translate(0,540.36216)" />
    <path
       style="fill:#999999;fill-opacity:1;stroke:#000000;stroke-width:0.71428573;stroke-opacity:1"
       d="m 105.62585,376.1049 c -10.214287,-2.16506 -18.650977,-4.00485 -18.748202,-4.08843 -0.33282,-0.28611 8.033238,-40.38988 8.426138,-40.39177 0.215722,-0.001 0.771889,1.04275 1.235925,2.31954 2.884957,7.9379 15.811929,28.27529 24.819629,39.04756 5.01955,6.00285 5.75743,7.18971 4.43029,7.12601 -0.87579,-0.042 -9.9495,-1.84785 -20.16378,-4.01291 z"
       id="path4304"
       inkscape:connector-curvature="0"
       transform="translate(0,540.36216)" />
    <path
       style="fill:#999999;fill-opacity:1;stroke:#000000;stroke-width:0.71428573;stroke-opacity:1"
       d="m 77.573344,319.61982 c -8.357449,-4.98764 -15.107449,-9.40817 -15,-9.8234 0.107449,-0.41523 4.356626,-7.10347 9.442615,-14.86275 l 9.247252,-14.10779 1.28676,7.64212 c 1.761665,10.4626 4.20824,19.8383 7.719739,29.58338 3.80269,10.55319 3.851838,10.72146 3.118018,10.67559 -0.340462,-0.0213 -7.456935,-4.1195 -15.814384,-9.10715 z"
       id="path4306"
       inkscape:connector-curvature="0"
       transform="translate(0,540.36216)" />
    <path
       style="fill:#999999;fill-opacity:1;stroke:#000000;stroke-width:0.71428573;stroke-opacity:1"
       d="m 67.362866,267.64283 c -7.241073,-5.31993 -13.433722,-9.93855 -13.761442,-10.2636 -0.327719,-0.32504 5.136567,-5.50217 12.142857,-11.50474 7.006291,-6.00257 13.50462,-11.58443 14.44073,-12.40415 l 1.70202,-1.49039 -0.489582,2.70627 c -0.967026,5.34545 -1.591057,23.90169 -1.110031,33.00802 0.269776,5.10714 0.434373,9.3612 0.36577,9.45346 -0.0686,0.0923 -6.049247,-4.18493 -13.290322,-9.50487 z"
       id="path4308"
       inkscape:connector-curvature="0"
       transform="translate(0,540.36216)" />
    <path
       style="fill:#999999;fill-opacity:1;stroke:#000000;stroke-width:0.71428573;stroke-opacity:1"
       d="m 71.366269,211.645 c -6.47685,-11.48512 -10.296131,-18.96648 -9.889891,-19.37272 0.660888,-0.66089 37.57768,-16.99638 37.881119,-16.7622 0.08812,0.068 -1.470164,3.77741 -3.462854,8.24312 -5.081933,11.38886 -9.785207,25.85488 -12.048365,37.05758 L 81.917983,230.35589 71.366269,211.645 Z"
       id="path4310"
       inkscape:connector-curvature="0"
       transform="translate(0,540.36216)" />
    <path
       style="fill:#999999;fill-opacity:1;stroke:#000000;stroke-width:0.71428573;stroke-opacity:1"
       d="m 98.307927,153.58806 c -1.240491,-10.31197 -2.030004,-18.93977 -1.754473,-19.17289 0.566422,-0.47925 33.680416,-3.0653 34.083906,-2.6618 0.14333,0.14333 -2.0064,2.82438 -4.77718,5.95788 -7.06343,7.9881 -14.96101,18.70702 -20.11758,27.30442 -2.4152,4.02678 -4.56856,7.32143 -4.78525,7.32143 -0.21669,0 -1.408931,-8.43707 -2.649423,-18.74904 z"
       id="path4312"
       inkscape:connector-curvature="0"
       transform="translate(0,540.36216)" />
    <path
       style="fill:#999999;fill-opacity:1;stroke:#000000;stroke-width:0.71428573;stroke-opacity:1"
       d="m 133.30866,112.80508 c 0.22491,-9.35666 0.56519,-17.168366 0.75617,-17.359349 0.19099,-0.190983 9.24819,0.554303 20.12712,1.656191 16.84702,1.706374 19.58477,2.142315 18.46403,2.940098 -0.72372,0.51517 -4.85156,3.15289 -9.17299,5.86161 -7.69373,4.82252 -17.31232,12.17641 -26.15256,19.99494 l -4.4307,3.91862 0.40893,-17.01211 z"
       id="path4314"
       inkscape:connector-curvature="0"
       transform="translate(0,540.36216)" />
    <path
       style="fill:#999999;fill-opacity:1;stroke:#000000;stroke-width:0.71428573;stroke-opacity:1"
       d="m 176.14861,97.158524 c 0.17516,-0.491071 2.36458,-8.681389 4.86538,-18.200706 4.41781,-16.816409 4.5884,-17.281668 6.00796,-16.385807 0.80357,0.507124 8.77354,4.907401 17.71104,9.778395 8.9375,4.870993 16.25,9.110678 16.25,9.421521 0,0.310843 -0.61351,0.565169 -1.36336,0.565169 -4.44504,0 -28.34623,8.376846 -38.4414,13.472872 -4.93708,2.492231 -5.49046,2.640605 -5.02962,1.348556 z"
       id="path4316"
       inkscape:connector-curvature="0"
       transform="translate(0,540.36216)" />
    <path
       style="fill:#999999;fill-opacity:1;stroke:#000000;stroke-width:0.71428573;stroke-opacity:1"
       d="M 243.12585,406.5964 C 211.0913,402.71403 181.14499,388.7308 158.18032,366.93163 101.30904,312.94669 96.035956,224.72135 146.10147,164.8371 c 27.25172,-32.59627 65.79358,-51.48963 108.12979,-53.00564 25.12765,-0.89979 48.39621,4.00693 70.15997,14.79485 16.88752,8.37085 28.05177,16.51597 41.26039,30.1024 12.40669,12.76156 19.46154,22.80403 27.12177,38.60748 14.39852,29.70485 18.35625,62.94856 11.36807,95.48821 -4.79173,22.31214 -15.64603,44.72772 -30.2734,62.51862 -4.90984,5.97172 -15.81645,16.79783 -21.66744,21.50753 -19.33859,15.5664 -43.84465,26.47088 -69.07477,30.73626 -8.00456,1.35324 -32.13832,1.96237 -40,1.00959 z m 27.96004,-34.29715 c 40.50655,-4.11865 74.11158,-27.27 91.70297,-63.17644 27.56243,-56.25871 4.17348,-124.15356 -52.16301,-151.42189 -61.91849,-29.97016 -135.82466,1.29328 -157.18159,66.49021 -6.95776,21.24016 -7.3047,46.20382 -0.93989,67.62857 13.05325,43.93892 51.45244,75.6516 97.40719,80.44555 8.33761,0.86977 12.88284,0.87707 21.17433,0.034 z"
       id="path4318"
       inkscape:connector-curvature="0"
       transform="translate(0,540.36216)" />
    <path
       style="fill:#999999;fill-opacity:1;stroke:#000000;stroke-width:0.71428573;stroke-opacity:1"
       d="m 189.21346,231.86822 c 4.1449,-11.01199 10.37155,-20.24439 19.59962,-29.06084 7.20541,-6.88401 17.82497,-13.82889 24.1342,-15.78306 l 1.60714,-0.49778 0,25.04814 0,25.04813 -23.56529,0 -23.56529,0 1.78962,-4.75459 z m 28.11322,-6.75142 c 2.23016,-0.77744 4.3706,-3.7129 4.3706,-5.99399 0,-3.80757 -4.1252,-7.02793 -8.0432,-6.27895 -6.06376,1.15916 -6.69633,10.01103 -0.88537,12.38941 1.92617,0.78837 1.9652,0.78737 4.55797,-0.11647 z"
       id="path4320"
       inkscape:connector-curvature="0"
       transform="translate(0,540.36216)" />
    <path
       style="fill:#999999;fill-opacity:1;stroke:#000000;stroke-width:0.71428573;stroke-opacity:1"
       d="m 283.51425,220.80231 c -0.26852,-7.99516 -0.3854,-19.574 -0.25973,-25.73077 l 0.22847,-11.19412 4.64286,1.62747 c 14.44633,5.06392 27.56525,14.70169 37.1022,27.25703 4.02529,5.29927 11.99668,20.71424 11.14986,21.56145 -0.28241,0.28255 -12.18243,0.62664 -26.44447,0.76465 l -25.93098,0.25092 -0.48821,-14.53663 z m 23.09814,3.6002 c 2.23017,-0.77744 4.3706,-3.7129 4.3706,-5.99399 0,-3.80757 -4.1252,-7.02792 -8.0432,-6.27895 -6.06376,1.15916 -6.69633,10.01104 -0.88537,12.38941 1.92618,0.78837 1.96521,0.78738 4.55797,-0.11647 z"
       id="path4322"
       inkscape:connector-curvature="0"
       transform="translate(0,540.36216)" />
    <path
       style="fill:#999999;fill-opacity:1;stroke:#000000;stroke-width:0.71428573;stroke-opacity:1"
       d="m 284.31223,321.0871 c -0.25743,-7.36608 -0.46897,-21.66965 -0.47008,-31.78572 l -0.002,-18.39286 28.12706,0 28.12707,0 -0.96764,4.6162 c -4.62309,22.05489 -19.41659,41.93913 -39.10139,52.55698 -4.8209,2.60036 -13.59348,6.39825 -14.77903,6.39825 -0.25626,0 -0.67654,-6.02678 -0.93398,-13.39285 z m 24.44302,-23.11316 c 2.23017,-0.77744 4.3706,-3.7129 4.3706,-5.99399 0,-3.80757 -4.1252,-7.02793 -8.0432,-6.27895 -6.06376,1.15916 -6.69633,10.01103 -0.88537,12.38941 1.92618,0.78837 1.9652,0.78737 4.55797,-0.11647 z"
       id="path4324"
       inkscape:connector-curvature="0"
       transform="translate(0,540.36216)" />
    <path
       style="fill:#999999;fill-opacity:1;stroke:#000000;stroke-width:0.71428573;stroke-opacity:1"
       d="m 228.99413,330.21238 c -14.69529,-6.95202 -27.79925,-19.52011 -35.76653,-34.30386 -2.8194,-5.23155 -6.58504,-15.64347 -7.517,-20.78433 l -0.46591,-2.57005 6.97629,-0.46197 c 3.83697,-0.25408 14.73655,-0.46363 24.22131,-0.46566 15.06847,-0.003 17.29972,0.1389 17.67857,1.12615 0.63177,1.64638 0.53244,59.58454 -0.10215,59.58387 -0.29465,-3.1e-4 -2.55571,-0.95617 -5.02458,-2.12415 z m -11.66745,-31.52415 c 2.23016,-0.77744 4.3706,-3.71291 4.3706,-5.99399 0,-3.80758 -4.1252,-7.02793 -8.0432,-6.27896 -6.06376,1.15916 -6.69633,10.01104 -0.88537,12.38942 1.92617,0.78837 1.9652,0.78737 4.55797,-0.11647 z"
       id="path4326"
       inkscape:connector-curvature="0"
       transform="translate(0,540.36216)" />
    <circle
       style="fill:none;fill-opacity:1;stroke:#000000;stroke-width:1.06216133;stroke-opacity:1"
       id="path4351"
       cx="256.07141"
       cy="796.29077"
       r="237.46892" />
    <path
       style="fill:#000000;fill-opacity:1;stroke:#000000;stroke-width:0.71428573;stroke-opacity:1"
       d="M 237.76871,511.19395 C 160.75658,506.01842 87.852549,463.08513 43.824546,396.97995 9.7886219,345.87723 -4.8118398,280.86354 4.1835225,220.46435 11.801218,169.31547 34.678848,120.84086 68.002251,85.241046 92.518456,59.050081 114.86984,42.243376 144.55442,27.679081 170.74751,14.827831 194.92068,7.560149 225.62585,3.3048915 c 12.87464,-1.7842245 49.46016,-1.8090756 62.5,-0.042454 71.63487,9.7050085 133.64707,46.4861675 175.46751,104.0746625 40.70315,56.04993 56.56327,126.07905 44.16338,195 -9.32125,51.80931 -35.21855,100.27006 -73.29021,137.14556 -40.10707,38.84696 -89.35975,62.58801 -145.98354,70.36779 -7.87138,1.08149 -41.39728,1.96963 -50.71428,1.3435 z m 42.5,-18.20039 c 67.47398,-6.7271 129.82048,-42.86914 169.42745,-98.21651 24.93384,-34.84291 40.0376,-75.79368 43.84196,-118.86853 1.21172,-13.71965 0.47877,-40.34824 -1.46471,-53.21428 C 481.58516,153.26076 444.99118,95.469181 387.05442,56.841489 314.99485,8.7978077 218.69389,4.6926271 142.41156,46.412693 93.217813,73.317567 55.212608,116.10371 34.682066,167.69424 c -17.62731,44.29508 -21.55413,93.3602 -11.204597,140 16.338919,73.63076 67.011137,135.54243 135.874761,166.01274 26.79056,11.8541 53.13013,18.11607 85.55933,20.34089 5.81712,0.39908 27.16393,-0.23745 35.35715,-1.05431 z"
       id="path4355"
       inkscape:connector-curvature="0"
       transform="translate(0,540.36216)"
       inkscape:export-filename="/home/max/projects/NotZombies/gfx/characters/player.png"
       inkscape:export-xdpi="22"
       inkscape:export-ydpi="22" />
    <path
       style="fill:#666666;fill-opacity:1;stroke:#000000;stroke-width:0.71428573;stroke-opacity:1"
       d="m 237.55442,491.89695 c -10.02381,-1.01989 -21.82359,-2.7331 -29.42059,-4.27159 -35.9589,-7.2821 -72.10824,-24.49414 -101.65084,-48.39974 C 99.263535,433.38371 83.315028,417.74129 76.519394,409.8371 14.438319,337.62883 1.8383119,234.69407 44.693393,149.8371 57.884348,123.7178 71.943458,104.96664 94.782913,83.030831 128.82086,50.339602 175.95133,28.036598 225.37342,21.23302 c 11.54829,-1.589769 37.19518,-2.138999 50.05504,-1.071932 55.07305,4.569772 105.71255,27.611943 145.25071,66.092511 39.78322,38.719071 63.90525,87.596731 70.50857,142.869211 1.6191,13.55246 1.61725,40.04539 -0.004,53.57143 -5.73254,47.83451 -25.01342,91.76936 -56.01426,127.63833 -33.82723,39.1392 -79.36172,66.15526 -129.75819,76.98679 -15.94903,3.42787 -25.56861,4.40457 -45.71428,4.64149 -10.60715,0.12474 -20.57143,0.096 -22.14286,-0.0639 l -1.6e-4,3e-5 z m 32.94943,-32.42528 c 4.27067,-4.52242 10.65771,-11.33102 14.19343,-15.13023 l 6.42857,-6.90766 18.09393,9.86943 c 21.10403,11.5113 23.49312,12.66112 24.40746,11.74679 0.36755,-0.36756 2.60937,-7.73368 4.98183,-16.36917 2.37245,-8.63548 4.99468,-17.75353 5.82717,-20.26232 l 1.5136,-4.56144 5.088,0.43265 c 2.79841,0.23795 12.30952,1.40667 21.13582,2.59715 17.95986,2.4224 19.93318,2.5455 20.38547,1.27165 0.27288,-0.76857 4.63815,-42.26789 4.63815,-44.09359 0,-0.96327 2.79063,-1.30178 21.07143,-2.55602 20.12203,-1.38057 21.50744,-1.62695 21.2011,-3.77035 -0.12511,-0.87534 -2.9486,-10.6235 -6.27441,-21.66256 -3.32581,-11.03908 -5.9556,-20.15562 -5.84396,-20.25899 0.11164,-0.10337 6.37227,-3.77129 13.91251,-8.15094 7.54024,-4.37966 14.39793,-8.52045 15.23931,-9.20176 l 1.5298,-1.23875 -8.71631,-17.3601 c -4.79396,-9.54806 -8.43737,-17.60892 -8.09646,-17.91303 0.34092,-0.30411 7.02514,-5.81054 14.85383,-12.23652 l 14.23398,-11.68359 -15.57807,-15.07722 -15.57807,-15.07721 9.28957,-13.9077 c 10.6528,-15.94862 12.81966,-19.78422 11.45603,-20.27849 -0.50302,-0.18232 -8.30742,-2.61877 -17.34314,-5.41431 -9.03571,-2.79555 -16.80297,-5.29182 -17.26057,-5.54727 -0.58214,-0.32497 1.17151,-6.57811 5.83924,-20.8216 3.66918,-11.19642 6.42682,-20.60961 6.12809,-20.91819 -0.59459,-0.61419 -13.67699,-1.55447 -32.48665,-2.33493 l -12.06561,-0.50063 0.48765,-17.58741 c 0.26821,-9.67307 0.67592,-19.108672 0.906,-20.967993 0.34118,-2.756936 0.19683,-3.465595 -0.78243,-3.841374 -0.66043,-0.253432 -10.58504,1.35311 -22.05468,3.570088 -11.46965,2.216986 -21.38495,4.025958 -22.03402,4.019943 -0.67689,-0.0064 -1.53993,-1.000843 -2.0239,-2.332357 -0.46407,-1.276786 -3.73568,-10.678571 -7.27024,-20.892857 -3.53456,-10.214286 -6.67656,-18.831337 -6.98224,-19.149003 -0.30569,-0.317665 -10.58347,4.423406 -22.83954,10.535714 -12.25606,6.112309 -22.66758,11.092379 -23.13671,11.066822 -0.46913,-0.02556 -7.08422,-7.452672 -14.7002,-16.5047 L 258.43136,43.613408 240.49289,61.483238 222.55442,79.35307 204.35934,69.416511 c -10.00729,-5.465107 -18.72873,-9.936558 -19.38098,-9.936558 -0.65224,0 -1.34383,0.5625 -1.53685,1.25 -0.19302,0.6875 -2.34905,8.803571 -4.79119,18.035714 -2.44213,9.232143 -4.66172,17.020386 -4.93242,17.307207 -0.45144,0.478329 -23.82769,-1.432714 -36.50952,-2.984707 -2.94031,-0.359829 -5.39465,-0.595671 -5.45407,-0.524086 -0.0594,0.07159 -0.40883,8.092419 -0.77645,17.824079 -0.36764,9.73166 -0.96688,17.97195 -1.33165,18.31175 -0.36477,0.33981 -7.89536,1.14595 -16.73465,1.79143 -8.83928,0.64548 -16.816325,1.3364 -17.726754,1.53538 -1.900843,0.41544 -2.006807,-2.0407 0.999515,23.16752 1.007314,8.44643 1.888385,15.92201 1.957935,16.61239 0.09939,0.98662 -3.618714,2.91304 -17.37355,9.00155 -20.74344,9.18199 -22.857143,10.19177 -22.857143,10.91952 0,0.30502 4.714603,9.12413 10.476895,19.59802 7.243615,13.16643 10.274611,19.3265 9.821429,19.96068 -0.360506,0.50448 -6.441181,6.03548 -13.512609,12.2911 -7.071429,6.25562 -13.267494,11.87355 -13.769034,12.48428 -0.776824,0.94594 -0.406532,1.52809 2.5,3.93027 2.732872,2.25865 22.118858,17.05815 24.706654,18.86135 0.853933,0.59503 0.268204,1.6209 -9.980566,17.4804 -4.847809,7.50176 -8.814197,13.99524 -8.814197,14.42995 0,0.4347 6.991071,4.9847 15.535714,10.1111 8.544643,5.12641 15.976286,9.60445 16.514757,9.9512 0.806707,0.51948 0.257929,4.30211 -3.117553,21.48891 -2.253188,11.47246 -3.818707,21.10532 -3.479043,21.40706 0.339654,0.30173 8.813982,2.23051 18.83184,4.28618 10.01786,2.05568 19.66071,4.12174 21.42857,4.59125 l 3.21429,0.85367 0.60338,20.69198 c 0.33187,11.3806 0.65365,20.74593 0.71509,20.81185 0.0614,0.0659 9.11134,-1.13124 20.1109,-2.66035 10.99956,-1.52911 21.28491,-2.95535 22.85634,-3.16941 l 2.85714,-0.38921 7.78625,18.94242 c 5.57265,13.55712 8.10867,18.94241 8.92032,18.94241 0.62375,0 9.0631,-4.33929 18.75414,-9.64286 9.69103,-5.30357 17.89391,-9.64285 18.22862,-9.64285 0.33471,0 7.65691,7.05381 16.27156,15.67514 9.69644,9.70396 15.98746,15.48598 16.51477,15.17857 0.46848,-0.27311 4.34596,-4.19673 8.61663,-8.71914 z"
       id="path4357"
       inkscape:connector-curvature="0"
       transform="translate(0,540.36216)" />
    <path
       style="fill:#666666;fill-opacity:1;stroke:#000000;stroke-width:0.71428573;stroke-opacity:1"
       d="m 243.98299,435.48662 c -33.10991,-3.35645 -64.52033,-15.56377 -90.68523,-35.24382 -8.68934,-6.53573 -22.10363,-19.40315 -29.83634,-28.61999 -14.99493,-17.87288 -27.590295,-41.41633 -34.009684,-63.57143 -5.114333,-17.65098 -6.881229,-30.5534 -6.847153,-50 0.031,-17.69282 1.122929,-26.98858 5.034209,-42.85714 6.011656,-24.39006 16.221088,-45.6453 31.174678,-64.90327 6.94448,-8.94344 22.67203,-24.94936 31.24095,-31.79389 20.32006,-16.2309 44.35269,-27.887774 70.08354,-33.993583 26.38569,-6.261197 61.91579,-5.437585 88.48789,2.05121 30.34034,8.550794 57.40344,24.922083 80,48.394423 27.09678,28.14697 43.84641,63.52634 48.64254,102.74511 1.09429,8.94816 1.07968,32.90343 -0.0253,41.42857 -3.34749,25.8275 -12.7225,52.22931 -26.12447,73.57143 -13.93866,22.19677 -35.73145,43.69311 -58.17724,57.38586 -3.32286,2.02706 -6.65543,3.68557 -7.40571,3.68557 -0.75027,0 -2.39523,0.90531 -3.65545,2.0118 -6.55355,5.75409 -35.58943,15.59092 -53.9687,18.28361 -7.19668,1.05437 -37.79498,2.04732 -43.92858,1.42554 l 3e-5,0 z m 35.67276,-27.5201 c 14.26915,-1.46941 33.16811,-7.29043 47.71422,-14.69634 43.94964,-22.37622 74.50755,-65.50676 80.88617,-114.16566 2.10821,-16.0823 1.0892,-38.23311 -2.45709,-53.41097 -2.4884,-10.65021 -7.39948,-23.86256 -13.04593,-35.09768 -14.04369,-27.94369 -38.84933,-52.11812 -67.85087,-66.12434 -50.81862,-24.542719 -112.57918,-18.11159 -156.99069,16.34744 -30.95444,24.01766 -50.89643,58.26596 -56.82414,97.58955 -1.43917,9.5473 -1.63478,29.33841 -0.38475,38.92858 6.74585,51.75385 37.92562,95.16076 84.35175,117.43024 14.62764,7.01651 34.01584,12.52534 49.28572,14.00368 6.97361,0.67515 24.91619,0.26641 35.31561,-0.8045 z"
       id="path4359"
       inkscape:connector-curvature="0"
       transform="translate(0,540.36216)" />
    <path
       style="fill:#666666;fill-opacity:1;stroke:#000000;stroke-width:0.71428573;stroke-opacity:1"
       d="m 246.35819,369.86979 c -24.76848,-3.56169 -45.77206,-14.14252 -63.8424,-32.16143 -16.72202,-16.67443 -27.19067,-36.84156 -31.15302,-60.01412 -2.10984,-12.33873 -1.6276,-29.97932 1.15055,-42.08803 4.63759,-20.21317 13.63945,-37.28861 27.31839,-51.81967 17.15483,-18.2235 37.93012,-29.52849 62.72271,-34.13092 9.79503,-1.81832 28.43659,-1.63259 38.57143,0.38431 17.95156,3.57247 34.64425,10.97566 47.11159,20.89395 6.83548,5.43791 18.05825,16.95929 23.28371,23.90322 7.96368,10.58266 15.72638,28.54227 18.99468,43.94567 1.82346,8.59391 1.82923,32.74598 0.01,41.41147 -3.2473,15.46693 -11.05931,33.28982 -19.54889,44.60026 -21.28476,28.35713 -52.76117,44.85721 -87.351,45.78977 -6.55305,0.17668 -12.89532,-0.0858 -17.26766,-0.71448 l -2e-5,0 z m 23.64553,-31.12502 c 7.82721,-0.59709 11.01552,-1.20455 17.32783,-3.30143 25.5614,-8.49122 45.20375,-29.22856 52.40402,-55.32536 2.2752,-8.24628 3.08538,-22.69904 1.80917,-32.27383 -3.64579,-27.35274 -23.57571,-52.45128 -49.7046,-62.59498 -11.8438,-4.59798 -16.17024,-5.25673 -31.98115,-4.86949 -14.84749,0.36365 -17.42632,0.85757 -28.42971,5.44514 -20.8415,8.68931 -38.24279,27.83554 -45.1946,49.72656 -7.10465,22.37227 -3.61089,48.09037 9.17899,67.56806 4.30816,6.56088 16.30203,18.66018 22.49789,22.69564 10.6574,6.94134 23.98071,11.90978 34.64286,12.9188 3.14286,0.29743 6.19643,0.58619 6.78572,0.64169 0.58928,0.0555 5.3879,-0.22836 10.66358,-0.6308 z"
       id="path4361"
       inkscape:connector-curvature="0"
       transform="translate(0,540.36216)" />
    <path
       style="fill:#666666;fill-opacity:1;stroke:#000000;stroke-width:0.71428573;stroke-opacity:1"
       d="m 253.62585,336.60497 c -6.50157,-0.89586 -14.48155,-2.8628 -15.49751,-3.81989 -0.62246,-0.58638 -0.99222,-9.29553 -1.36096,-32.05513 l -0.5063,-31.25 -25.60333,0 -25.60333,0 0.0221,-7.67857 c 0.0203,-7.05783 0.77239,-15.50178 1.81323,-20.35714 l 0.42109,-1.96429 19.47833,0 c 10.71308,0 21.93754,-0.20788 24.94324,-0.46195 l 5.46492,-0.46196 0,-26.29608 0,-26.29609 3.55912,-1.05695 c 8.24184,-2.44756 30.09842,-3.26857 38.04802,-1.42921 l 1.96429,0.4545 0,13.73079 c 0,7.55194 0.21272,19.60356 0.47272,26.78137 l 0.47272,13.05057 27.71939,-0.2635 27.71938,-0.2635 0.68268,3.22029 c 1.24103,5.85408 2.31359,17.42684 2.08586,22.50601 l -0.22418,5 -28.57143,0.4387 c -15.71429,0.24128 -28.8125,0.48236 -29.10714,0.53571 -0.29465,0.0534 -0.53572,14.86376 -0.53572,32.912 0,18.04825 -0.26658,32.97975 -0.59239,33.18111 -2.47301,1.52841 -20.6374,2.75639 -27.26475,1.84321 z"
       id="path4363"
       inkscape:connector-curvature="0"
       transform="translate(0,540.36216)" />
    <path
       style="fill:#333333;fill-opacity:1;stroke:#000000;stroke-width:0.71428573;stroke-opacity:1"
       d="m 188.99416,234.30138 c 1.1393,-3.94124 7.74094,-16.31355 10.97696,-20.5722 7.37104,-9.7004 21.06168,-20.94331 30.35252,-24.92582 l 3.30221,-1.4155 0,24.26033 0,24.26033 -22.54814,0 -22.54813,0 0.46458,-1.60714 z m 28.48985,-8.67455 c 5.03221,-2.10259 6.30289,-7.52429 2.62536,-11.20182 -1.6015,-1.60149 -2.7439,-2.08791 -4.90368,-2.08791 -7.37473,0 -9.87078,9.00764 -3.56193,12.85414 2.78873,1.70029 2.80967,1.70185 5.84025,0.43559 z"
       id="path4365"
       inkscape:connector-curvature="0"
       transform="translate(0,540.36216)" />
    <path
       style="fill:#333333;fill-opacity:1;stroke:#000000;stroke-width:0.71428573;stroke-opacity:1"
       d="m 284.07174,215.63268 c -0.46229,-17.67753 -0.0821,-30.4389 0.90681,-30.43808 0.87578,7.3e-4 8.18441,2.95981 11.75497,4.75929 15.68335,7.90407 28.09468,20.74131 36.1429,37.38321 l 2.93622,6.07142 -5.91482,0.46483 c -3.25316,0.25565 -14.78396,0.49672 -25.62401,0.53571 l -19.70919,0.0709 -0.49288,-18.84727 z m 22.69799,9.27987 c 5.03221,-2.10259 6.30288,-7.52429 2.62535,-11.20183 -1.60149,-1.60149 -2.7439,-2.08791 -4.90367,-2.08791 -7.37473,0 -9.87078,9.00764 -3.56194,12.85414 2.78873,1.70029 2.80968,1.70185 5.84026,0.4356 z"
       id="path4367"
       inkscape:connector-curvature="0"
       transform="translate(0,540.36216)" />
    <path
       style="fill:#333333;fill-opacity:1;stroke:#000000;stroke-width:0.71428573;stroke-opacity:1"
       d="m 285.5067,330.43744 c -0.24235,-1.76816 -0.65608,-15.72479 -0.9194,-31.01473 l -0.47875,-27.7999 27.66393,0 c 26.01481,0 27.64133,0.0745 27.28484,1.25 -0.20849,0.6875 -0.6987,2.69643 -1.08936,4.46429 -4.79295,21.68978 -21.44258,42.09078 -42.52961,52.11204 -10.11339,4.80622 -9.41783,4.737 -9.93165,0.9883 z m 23.40588,-31.95346 c 5.03221,-2.1026 6.30289,-7.5243 2.62536,-11.20183 -1.6015,-1.60149 -2.7439,-2.08791 -4.90367,-2.08791 -7.37473,0 -9.87079,9.00764 -3.56194,12.85414 2.78873,1.70029 2.80967,1.70185 5.84025,0.4356 z"
       id="path4369"
       inkscape:connector-curvature="0"
       transform="translate(0,540.36216)" />
    <path
       style="fill:#333333;fill-opacity:1;stroke:#000000;stroke-width:0.71428573;stroke-opacity:1"
       d="m 227.55442,328.53697 c -8.02336,-4.2003 -12.01872,-7.07852 -18.45395,-13.2941 -6.32015,-6.10443 -11.28533,-12.51195 -14.98215,-19.33435 -2.51016,-4.63242 -6.44357,-15.04981 -7.56194,-20.0273 l -0.59032,-2.62734 6.86561,-0.4547 c 12.82247,-0.84921 40.08779,-0.55834 40.46771,0.43171 0.18864,0.49159 0.25891,13.80964 0.15615,29.59567 l -0.18682,28.70188 -5.71429,-2.99147 z m -10.07041,-29.33871 c 5.03221,-2.10259 6.30289,-7.52429 2.62536,-11.20182 -1.6015,-1.6015 -2.7439,-2.08792 -4.90368,-2.08792 -7.37473,0 -9.87078,9.00765 -3.56193,12.85415 2.78873,1.70029 2.80967,1.70185 5.84025,0.43559 z"
       id="path4371"
       inkscape:connector-curvature="0"
       transform="translate(0,540.36216)" />
    <path
       style="fill:#333333;fill-opacity:1;stroke:#000000;stroke-width:0.71428573;stroke-opacity:1"
       d="m 243.98299,405.90287 c -15.33976,-1.38155 -34.82988,-7.1874 -50.38813,-15.00993 -41.36393,-20.79737 -70.80474,-60.55437 -78.93349,-106.59209 -6.32807,-35.83949 1.69887,-74.73905 21.62985,-104.8209 6.57451,-9.92292 9.7946,-13.91146 18.37273,-22.75722 22.6547,-23.3615 50.34808,-37.56176 83.31631,-42.72187 10.95718,-1.71499 34.3784,-1.70305 44.57416,0.0227 34.58367,5.85375 64.18933,22.25591 87.55055,48.50484 18.67292,20.98109 31.31277,48.54149 35.26807,76.89974 1.44478,10.35866 1.44478,29.74492 0,40.10359 -9.57668,68.66185 -66.66397,122.22955 -134.66803,126.36538 -12.8529,0.78169 -18.09398,0.78281 -26.72202,0.006 l 0,2e-5 z m 26.17432,-32.88378 c 41.92503,-4.23142 75.93838,-27.67422 93.4753,-64.42538 28.47565,-59.67488 0.94508,-130.25709 -60.3639,-154.75954 -15.38422,-6.14838 -28.09635,-8.28136 -45.97426,-7.71406 -22.47061,0.71303 -40.16104,6.19406 -58.6686,18.17731 -47.83598,30.97275 -64.99411,93.95653 -39.64814,145.53968 15.33542,31.21006 44.4202,53.77143 78.68834,61.03938 13.03763,2.76517 21.07292,3.29504 32.49126,2.14261 z"
       id="path4373"
       inkscape:connector-curvature="0"
       transform="translate(0,540.36216)" />
    <path
       style="fill:#333333;fill-opacity:1;stroke:#000000;stroke-width:0.71428573;stroke-opacity:1"
       d="m 369.45907,417.44023 -18.09534,-2.60313 8.45249,-5.54959 c 8.39251,-5.51022 16.96979,-12.40755 28.15585,-22.64126 l 5.83006,-5.3337 -0.45055,4.26227 c -0.24779,2.34425 -1.09644,10.81065 -1.88587,18.81422 -0.78943,8.00357 -1.60961,14.83393 -1.82261,15.17857 -0.47912,0.77524 1.28787,0.96148 -20.18403,-2.12738 z"
       id="path4375"
       inkscape:connector-curvature="0"
       transform="translate(0,540.36216)" />
    <path
       style="fill:#333333;fill-opacity:1;stroke:#000000;stroke-width:0.71428573;stroke-opacity:1"
       d="m 402.41873,370.48714 c 5.52113,-7.25078 13.60149,-19.77089 18.0052,-27.89813 2.67953,-4.94517 4.70999,-7.98243 4.92581,-7.36825 0.28466,0.81011 9.13772,29.49544 10.81381,35.0385 0.29987,0.99174 -1.40874,1.24614 -13.41846,1.99796 -7.56916,0.47383 -15.83993,1.05852 -18.3795,1.29931 l -4.61741,0.43779 2.67055,-3.50718 z"
       id="path4377"
       inkscape:connector-curvature="0"
       transform="translate(0,540.36216)" />
    <path
       style="fill:#333333;fill-opacity:1;stroke:#000000;stroke-width:0.71428573;stroke-opacity:1"
       d="m 429.34014,324.00681 c 0,-0.26023 1.28496,-4.42281 2.85547,-9.25017 2.81279,-8.64583 7.14453,-26.51687 7.14453,-29.47552 0,-0.8335 0.26674,-1.51545 0.59276,-1.51545 0.62393,0 14.63208,26.44182 14.22421,26.84969 -0.42322,0.42322 -24.17694,13.86459 -24.50164,13.86459 -0.17343,0 -0.31533,-0.21291 -0.31533,-0.47314 z"
       id="path4379"
       inkscape:connector-curvature="0"
       transform="translate(0,540.36216)" />
    <path
       style="fill:#333333;fill-opacity:1;stroke:#000000;stroke-width:0.71428573;stroke-opacity:1"
       d="m 441.2345,256.09507 c -0.26153,-8.54903 -0.82397,-18.18819 -1.24986,-21.42037 -0.42588,-3.23217 -0.6502,-6.2491 -0.49847,-6.70427 0.27948,-0.83846 25.56825,22.53568 25.56825,23.63246 0,0.3272 -4.74107,4.5341 -10.53571,9.34867 -5.79465,4.81457 -11.04714,9.18879 -11.6722,9.72049 -1.03193,0.87778 -1.18023,-0.46325 -1.61201,-14.57698 z"
       id="path4381"
       inkscape:connector-curvature="0"
       transform="translate(0,540.36216)" />
    <path
       style="fill:#333333;fill-opacity:1;stroke:#000000;stroke-width:0.71428573;stroke-opacity:1"
       d="m 436.51323,215.7832 c -1.61,-6.47736 -6.73474,-21.93524 -9.40747,-28.376 -1.53273,-3.69359 -2.64312,-6.85928 -2.46753,-7.03487 0.29774,-0.29774 31.13937,8.9672 31.77994,9.54681 0.2903,0.26267 -7.11769,11.61331 -15.01546,23.00692 l -4.12169,5.94611 -0.76779,-3.08897 z"
       id="path4383"
       inkscape:connector-curvature="0"
       transform="translate(0,540.36216)" />
    <path
       style="fill:#333333;fill-opacity:1;stroke:#000000;stroke-width:0.71428573;stroke-opacity:1"
       d="m 418.64455,170.00146 c -3.77544,-6.89051 -14.45584,-22.4132 -19.69241,-28.62057 -2.59787,-3.07949 -4.56469,-5.75778 -4.37071,-5.95176 0.41633,-0.41633 34.94839,1.06805 37.75272,1.62282 l 1.92258,0.38033 -6.13803,17.98812 c -3.37591,9.89347 -6.34004,18.2228 -6.58695,18.50963 -0.2469,0.28683 -1.54614,-1.48103 -2.8872,-3.92857 z"
       id="path4385"
       inkscape:connector-curvature="0"
       transform="translate(0,540.36216)" />
    <path
       style="fill:#333333;fill-opacity:1;stroke:#000000;stroke-width:0.71428573;stroke-opacity:1"
       d="m 382.91156,124.68102 c -6.97205,-6.21349 -20.64695,-16.60647 -27.0538,-20.561 -2.40612,-1.48514 -4.37477,-2.90864 -4.37477,-3.16332 0,-0.45044 36.51975,-7.974046 38.48392,-7.928256 0.81995,0.01912 0.89596,2.373777 0.45614,14.130076 -0.29027,7.75893 -0.73303,16.09304 -0.98391,18.52025 l -0.45615,4.4131 -6.07143,-5.41085 z"
       id="path4387"
       inkscape:connector-curvature="0"
       transform="translate(0,540.36216)" />
    <path
       style="fill:#333333;fill-opacity:1;stroke:#000000;stroke-width:0.71428573;stroke-opacity:1"
       d="m 338.26871,94.697214 c -9.86796,-5.07138 -30.76988,-12.060476 -43.46922,-14.535056 -2.30093,-0.448357 -3.90807,-1.076173 -3.57143,-1.395148 0.33664,-0.318975 9.46788,-5.105228 20.29164,-10.636118 l 19.67957,-10.056164 6.33509,18.738327 c 3.4843,10.306079 6.47538,19.140112 6.64685,19.631184 0.46643,1.335807 -0.42833,1.071422 -5.9125,-1.747025 z"
       id="path4389"
       inkscape:connector-curvature="0"
       transform="translate(0,540.36216)" />
    <path
       style="fill:#333333;fill-opacity:1;stroke:#000000;stroke-width:0.71428573;stroke-opacity:1"
       d="m 229.14896,77.627466 c 0.82164,-1.141847 4.65614,-5.114585 8.52111,-8.828308 3.86496,-3.713724 10.11835,-9.772207 13.89641,-13.463297 l 6.8692,-6.711074 11.70223,13.711866 c 6.43622,7.541528 11.92773,14.106163 12.20336,14.588081 0.39153,0.684588 -2.82159,0.805457 -14.69207,0.552674 -13.51021,-0.287701 -28.49215,0.432858 -37.18731,1.788529 l -2.80682,0.437614 1.49389,-2.076085 z"
       id="path4391"
       inkscape:connector-curvature="0"
       transform="translate(0,540.36216)" />
    <path
       style="fill:#333333;fill-opacity:1;stroke:#000000;stroke-width:0.71428573;stroke-opacity:1"
       d="m 177.21321,96.163516 c 0.0398,-1.529025 8.50527,-31.916584 9.03297,-32.424624 0.32667,-0.314509 7.91456,3.500353 16.86196,8.477471 15.89323,8.840831 16.21411,9.064013 13.92857,9.687763 -10.12823,2.764112 -22.70113,7.440017 -38.94658,14.484365 -0.49107,0.212938 -0.88568,0.1117 -0.87692,-0.224975 z"
       id="path4393"
       inkscape:connector-curvature="0"
       transform="translate(0,540.36216)" />
    <path
       style="fill:#333333;fill-opacity:1;stroke:#000000;stroke-width:0.71428573;stroke-opacity:1"
       d="m 133.86572,116.28096 c 0.26093,-6.61604 0.47441,-13.91747 0.47441,-16.2254 l 0,-4.19624 3.39286,0.377549 c 1.86607,0.207651 8.85714,0.900192 15.53572,1.538978 6.67857,0.638786 13.56827,1.364854 15.31044,1.613484 l 3.16758,0.452054 -6.63546,4.206475 c -8.45113,5.35751 -15.90296,10.88722 -24.72692,18.34887 l -6.99305,5.9134 0.47442,-12.02917 z"
       id="path4395"
       inkscape:connector-curvature="0"
       transform="translate(0,540.36216)" />
    <path
       style="fill:#333333;fill-opacity:1;stroke:#000000;stroke-width:0.71428573;stroke-opacity:1"
       d="m 101.17695,169.39628 c -0.35072,-1.03705 -2.861765,-21.12463 -3.671585,-29.37147 -0.368089,-3.74846 -0.256995,-4.88516 0.502536,-5.14191 0.831461,-0.28105 28.020659,-2.5458 30.563419,-2.5458 0.48533,0 -1.07654,2.33035 -3.47083,5.17857 -7.06272,8.40173 -14.06344,17.84396 -18.98435,25.60516 -2.61433,4.12331 -4.74956,6.8362 -4.93919,6.27545 z"
       id="path4397"
       inkscape:connector-curvature="0"
       transform="translate(0,540.36216)" />
    <path
       style="fill:#333333;fill-opacity:1;stroke:#000000;stroke-width:0.71428573;stroke-opacity:1"
       d="M 73.083886,213.22995 C 64.18196,197.24452 61.984102,193.02646 62.360531,192.65003 c 0.812498,-0.8125 35.551032,-16.06877 35.551032,-15.6131 0,0.1723 -1.419082,3.63568 -3.153516,7.69638 -5.436966,12.72919 -10.741431,29.83874 -12.267266,39.56807 -0.261848,1.66964 -0.71793,3.03572 -1.013517,3.03572 -0.295586,0 -4.072607,-6.34822 -8.393378,-14.10715 z"
       id="path4399"
       inkscape:connector-curvature="0"
       transform="translate(0,540.36216)" />
    <path
       style="fill:#333333;fill-opacity:1;stroke:#000000;stroke-width:0.71428573;stroke-opacity:1"
       d="m 77.963149,274.89925 c -0.460692,-0.5551 -5.795988,-4.65331 -11.856215,-9.10714 -6.060226,-4.45383 -11.026225,-8.46848 -11.035553,-8.92145 -0.0093,-0.45296 1.077415,-1.73868 2.414985,-2.85714 1.33757,-1.11846 6.982071,-6.00514 12.543334,-10.85928 5.561263,-4.85414 10.209673,-8.71129 10.329799,-8.57143 0.120126,0.13986 -0.08853,4.43286 -0.463678,9.54 -0.37515,5.10714 -0.511974,14.34821 -0.304055,20.53571 0.20792,6.1875 0.115004,11.25 -0.20648,11.25 -0.321484,0 -0.961445,-0.45417 -1.422137,-1.00927 z"
       id="path4401"
       inkscape:connector-curvature="0"
       transform="translate(0,540.36216)" />
    <path
       style="fill:#333333;fill-opacity:1;stroke:#000000;stroke-width:0.71428573;stroke-opacity:1"
       d="m 79.186233,319.65852 c -6.935047,-4.22321 -13.339221,-8.1904 -14.231497,-8.81597 l -1.622319,-1.1374 2.457626,-3.8626 c 10.139867,-15.93662 14.970598,-22.90893 15.258894,-22.02353 0.182324,0.55994 0.689964,3.26808 1.128087,6.01808 1.136952,7.13638 5.223265,22.38925 8.180656,30.53571 1.390525,3.83036 2.282866,6.96429 1.982979,6.96429 -0.299887,0 -6.219378,-3.45536 -13.154426,-7.67858 z"
       id="path4403"
       inkscape:connector-curvature="0"
       transform="translate(0,540.36216)" />
    <path
       style="fill:#333333;fill-opacity:1;stroke:#000000;stroke-width:0.71428573;stroke-opacity:1"
       d="m 119.69728,378.2738 c -2.75,-0.555 -11.01579,-2.27851 -18.36843,-3.83004 -7.352632,-1.55152 -13.488208,-2.82095 -13.634609,-2.82095 -0.241085,0 4.476452,-23.55883 6.777331,-33.84521 l 0.939991,-4.20235 3.146555,6.20779 c 3.887592,7.66977 15.446302,25.1815 21.866282,33.12797 2.63545,3.26208 4.67498,6.03024 4.5323,6.15146 -0.14268,0.12122 -2.50942,-0.23368 -5.25942,-0.78867 z"
       id="path4405"
       inkscape:connector-curvature="0"
       transform="translate(0,540.36216)" />
    <path
       style="fill:#333333;fill-opacity:1;stroke:#000000;stroke-width:0.71428573;stroke-opacity:1"
       d="m 132.65776,419.67938 c -0.69787,-3.67991 -1.30848,-26.32005 -0.80111,-29.70344 l 0.50294,-3.35386 4.27106,3.75036 c 8.36957,7.34924 17.47584,14.36529 25.82874,19.90013 4.66202,3.08917 8.03702,5.75499 7.5,5.92404 -0.53702,0.16905 -8.04783,1.30399 -16.69068,2.5221 -8.64286,1.2181 -16.73133,2.37923 -17.97438,2.58028 -2.02289,0.32717 -2.29961,0.15719 -2.63657,-1.61961 z"
       id="path4407"
       inkscape:connector-curvature="0"
       transform="translate(0,540.36216)" />
    <path
       style="fill:#333333;fill-opacity:1;stroke:#000000;stroke-width:0.71428573;stroke-opacity:1"
       d="m 192.62484,452.45104 c -1.01027,-1.63465 -12.59617,-31.04057 -12.33346,-31.30328 0.16082,-0.16083 3.29846,1.03042 6.97252,2.64723 7.77787,3.42271 22.95771,8.54072 30.64766,10.33312 2.94643,0.68676 5.57522,1.44866 5.84176,1.69311 0.26654,0.24444 -6.28415,4.14088 -14.55709,8.65873 -17.33824,9.46842 -16.03378,8.84096 -16.57139,7.97109 z"
       id="path4409"
       inkscape:connector-curvature="0"
       transform="translate(0,540.36216)" />
    <path
       style="fill:#333333;fill-opacity:1;stroke:#000000;stroke-width:0.71428573;stroke-opacity:1"
       d="m 248.26866,451.23666 c -7.22605,-7.42463 -13.07472,-13.56289 -12.99703,-13.64058 0.0777,-0.0777 2.71238,0.17351 5.85488,0.55822 7.77421,0.95174 31.4886,0.93661 38.87293,-0.0248 3.30905,-0.43082 6.0991,-0.70067 6.20011,-0.59966 0.10101,0.10102 -3.24925,3.88514 -7.44502,8.40917 -4.19577,4.52403 -9.81543,10.60409 -12.48813,13.51124 l -4.85945,5.28574 -13.13829,-13.49933 z"
       id="path4411"
       inkscape:connector-curvature="0"
       transform="translate(0,540.36216)" />
    <path
       style="fill:#333333;fill-opacity:1;stroke:#000000;stroke-width:0.71428573;stroke-opacity:1"
       d="m 312.9839,445.92693 -18.14195,-9.90613 3.14195,-0.77228 c 16.09326,-3.95565 28.59485,-8.10209 37.96059,-12.5905 2.7983,-1.34105 5.15787,-2.36365 5.24347,-2.27245 0.3134,0.33386 -9.26066,35.52176 -9.65495,35.48522 -0.22394,-0.0208 -8.57104,-4.49549 -18.54911,-9.94386 z"
       id="path4413"
       inkscape:connector-curvature="0"
       transform="translate(0,540.36216)" />
  </g>
</svg>
